<?xml version="1.0" encoding="UTF-8"?>
<svg xmlns="http://www.w3.org/2000/svg" xmlns:xlink="http://www.w3.org/1999/xlink" width="96" height="96" viewBox="0 0 96 96" version="1.1">
<g id="surface1">
<path style=" stroke:none;fill-rule:nonzero;fill:#2A2A2A;fill-opacity:1;" d="M 92 48 L 82.238281 36.878906 L 83.601562 22.160156 L 69.160156 18.878906 L 61.601562 6.160156 L 48 12 L 34.398438 6.160156 L 26.839844 18.878906 L 12.398438 22.121094 L 13.761719 36.839844 L 4 48 L 13.761719 59.121094 L 12.398438 73.878906 L 26.839844 77.160156 L 34.398438 89.878906 L 48 84 L 61.601562 89.839844 L 69.160156 77.121094 L 83.601562 73.839844 L 82.238281 59.121094 Z M 73.960938 56.441406 L 75 67.601562 L 64.039062 70.078125 L 58.320312 79.71875 L 48 75.28125 L 37.679688 79.71875 L 31.960938 70.078125 L 21 67.601562 L 22.039062 56.398438 L 14.640625 48 L 22.039062 39.519531 L 21 28.398438 L 31.960938 25.960938 L 37.679688 16.320312 L 48 20.71875 L 58.320312 16.28125 L 64.039062 25.921875 L 75 28.398438 L 73.960938 39.558594 L 81.359375 48 Z M 44 60 L 52 60 L 52 68 L 44 68 Z M 44 28 L 52 28 L 52 52 L 44 52 Z M 44 28 "/>
</g>
</svg>
