<?xml version="1.0" encoding="UTF-8"?>
<svg xmlns="http://www.w3.org/2000/svg" xmlns:xlink="http://www.w3.org/1999/xlink" width="96" height="96" viewBox="0 0 96 96" version="1.1">
<g id="surface1">
<path style=" stroke:none;fill-rule:nonzero;fill:#2A2A2A;fill-opacity:1;" d="M 28 64 C 30.199219 64 32 65.800781 32 68 C 32 72.398438 28.398438 76 24 76 C 23.320312 76 22.679688 75.921875 22 75.800781 C 23.238281 73.601562 24 70.960938 24 68 C 24 65.800781 25.800781 64 28 64 M 74.679688 12 C 73.640625 12 72.640625 12.398438 71.839844 13.160156 L 36 49 L 47 60 L 82.839844 24.160156 C 84.398438 22.601562 84.398438 20.078125 82.839844 18.519531 L 77.480469 13.160156 C 76.679688 12.359375 75.679688 12 74.679688 12 Z M 28 56 C 21.359375 56 16 61.359375 16 68 C 16 73.238281 11.359375 76 8 76 C 11.679688 80.878906 17.960938 84 24 84 C 32.839844 84 40 76.839844 40 68 C 40 61.359375 34.640625 56 28 56 Z M 28 56 "/>
</g>
</svg>
