<?xml version="1.0" encoding="UTF-8"?>
<svg xmlns="http://www.w3.org/2000/svg" xmlns:xlink="http://www.w3.org/1999/xlink" width="96" height="96" viewBox="0 0 96 96" version="1.1">
<g id="surface1">
<path style=" stroke:none;fill-rule:nonzero;fill:#2A2A2A;fill-opacity:1;" d="M 64 12 L 20 12 C 15.601562 12 12 15.601562 12 20 L 12 76 C 12 80.398438 15.601562 84 20 84 L 76 84 C 80.398438 84 84 80.398438 84 76 L 84 32 Z M 76 76 L 20 76 L 20 20 L 60 20 L 60 36 L 76 36 Z M 28 68 L 68 68 L 68 60 L 28 60 Z M 48 28 L 28 28 L 28 36 L 48 36 Z M 28 52 L 68 52 L 68 44 L 28 44 Z M 28 52 "/>
</g>
</svg>
