<?xml version="1.0" encoding="UTF-8"?>
<svg xmlns="http://www.w3.org/2000/svg" xmlns:xlink="http://www.w3.org/1999/xlink" width="96" height="96" viewBox="0 0 96 96" version="1.1">
<g id="surface1">
<path style=" stroke:none;fill-rule:nonzero;fill:#2A2A2A;fill-opacity:1;" d="M 74.398438 19.199219 L 67.199219 19.199219 L 67.199219 9.601562 L 60 9.601562 L 60 19.199219 L 36 19.199219 L 36 9.601562 L 28.800781 9.601562 L 28.800781 19.199219 L 21.601562 19.199219 C 17.617188 19.199219 14.398438 22.464844 14.398438 26.398438 L 14.398438 79.199219 C 14.398438 83.136719 17.617188 86.398438 21.601562 86.398438 L 74.398438 86.398438 C 78.382812 86.398438 81.601562 83.136719 81.601562 79.199219 L 81.601562 26.398438 C 81.601562 22.464844 78.382812 19.199219 74.398438 19.199219 Z M 74.398438 79.199219 L 21.601562 79.199219 L 21.601562 43.199219 L 74.398438 43.199219 Z M 74.398438 36 L 21.601562 36 L 21.601562 26.398438 L 74.398438 26.398438 Z M 36 57.601562 L 28.800781 57.601562 L 28.800781 50.398438 L 36 50.398438 Z M 51.601562 57.601562 L 44.398438 57.601562 L 44.398438 50.398438 L 51.601562 50.398438 Z M 67.199219 57.601562 L 60 57.601562 L 60 50.398438 L 67.199219 50.398438 Z M 36 72 L 28.800781 72 L 28.800781 64.800781 L 36 64.800781 Z M 51.601562 72 L 44.398438 72 L 44.398438 64.800781 L 51.601562 64.800781 Z M 67.199219 72 L 60 72 L 60 64.800781 L 67.199219 64.800781 Z M 67.199219 72 "/>
</g>
</svg>
