<?xml version="1.0" encoding="UTF-8"?>
<svg xmlns="http://www.w3.org/2000/svg" xmlns:xlink="http://www.w3.org/1999/xlink" width="96" height="96" viewBox="0 0 96 96" version="1.1">
<g id="surface1">
<path style=" stroke:none;fill-rule:nonzero;fill:#2A2A2A;fill-opacity:1;" d="M 48 12 L 48.039062 54.199219 C 45.679688 52.839844 42.960938 52 40.039062 52 C 31.160156 52 24 59.160156 24 68 C 24 76.839844 31.160156 84 40.039062 84 C 48.921875 84 56 76.839844 56 68 L 56 28 L 72 28 L 72 12 Z M 40.039062 76 C 35.640625 76 32.039062 72.398438 32.039062 68 C 32.039062 63.601562 35.640625 60 40.039062 60 C 44.441406 60 48.039062 63.601562 48.039062 68 C 48.039062 72.398438 44.441406 76 40.039062 76 Z M 40.039062 76 "/>
</g>
</svg>
